<svg width="720" height="340" viewBox="0 0 720 340" fill="none" xmlns="http://www.w3.org/2000/svg">
<rect width="720" height="340" fill="white"/>
<rect x="607" y="111" width="82" height="99" stroke="#89BDEE" stroke-width="2"/>
<rect x="171.5" y="221.5" width="86" height="25" stroke="#9747FF" stroke-dasharray="2 2"/>
<rect x="560.5" y="221.5" width="129" height="25" stroke="#9747FF" stroke-dasharray="2 2"/>
<rect x="270" y="111" width="312" height="84" stroke="#D1D5DB" stroke-width="2"/>
<path d="M258 30H595V210H258V30Z" stroke="#E71578" stroke-width="2"/>
<rect x="32" y="133" width="137" height="42" stroke="#89BDEE" stroke-width="2"/>
<path d="M555.667 153C555.667 155.946 558.054 158.333 561 158.333C563.946 158.333 566.333 155.946 566.333 153C566.333 150.054 563.946 147.667 561 147.667C558.054 147.667 555.667 150.054 555.667 153ZM626.707 153.707C627.098 153.317 627.098 152.683 626.707 152.293L620.343 145.929C619.953 145.538 619.319 145.538 618.929 145.929C618.538 146.319 618.538 146.953 618.929 147.343L624.586 153L618.929 158.657C618.538 159.047 618.538 159.681 618.929 160.071C619.319 160.462 619.953 160.462 620.343 160.071L626.707 153.707ZM561 154H626V152H561V154Z" fill="#0972D3"/>
<path d="M334.53 94V82.912H341.826V84.768H336.93V87.392H340.914V89.248H336.93V92.144H341.826V94H334.53ZM345.588 94L342.484 85.824H344.964L346.708 91.904L348.484 85.824H350.9L347.812 94H345.588ZM353.594 90.48C353.637 91.184 353.85 91.696 354.234 92.016C354.618 92.3253 355.221 92.48 356.042 92.48C356.757 92.48 357.589 92.3467 358.538 92.08V93.632C358.165 93.824 357.717 93.9733 357.194 94.08C356.682 94.1867 356.149 94.24 355.594 94.24C354.24 94.24 353.205 93.872 352.49 93.136C351.786 92.4 351.434 91.3227 351.434 89.904C351.434 88.5387 351.786 87.4773 352.49 86.72C353.194 85.9627 354.17 85.584 355.418 85.584C356.474 85.584 357.285 85.8773 357.85 86.464C358.426 87.04 358.714 87.8667 358.714 88.944C358.714 89.1787 358.698 89.4453 358.666 89.744C358.634 90.0427 358.597 90.288 358.554 90.48H353.594ZM355.338 87.2C354.816 87.2 354.4 87.36 354.09 87.68C353.792 87.9893 353.621 88.4427 353.578 89.04H356.714V88.768C356.714 87.7227 356.256 87.2 355.338 87.2ZM365.675 94V88.64C365.675 88.2027 365.579 87.8827 365.387 87.68C365.195 87.4773 364.901 87.376 364.507 87.376C363.92 87.376 363.339 87.5573 362.763 87.92V94H360.427V85.824H362.347L362.571 86.704C363.531 85.9573 364.555 85.584 365.643 85.584C366.4 85.584 366.981 85.792 367.387 86.208C367.803 86.6133 368.011 87.1947 368.011 87.952V94H365.675ZM375.007 93.792C374.431 94.016 373.786 94.128 373.071 94.128C372.165 94.128 371.493 93.9147 371.055 93.488C370.629 93.0613 370.415 92.4 370.415 91.504V87.552H369.183V86.112L370.479 85.856L370.831 83.616H372.751V85.824H374.959V87.552H372.751V91.392C372.751 91.7333 372.837 91.9733 373.007 92.112C373.178 92.2507 373.466 92.32 373.871 92.32C374.202 92.32 374.581 92.288 375.007 92.224V93.792ZM380.468 94V82.16H382.804V86.448C383.113 86.1813 383.476 85.9733 383.892 85.824C384.308 85.664 384.718 85.584 385.124 85.584C386.158 85.584 386.974 85.9627 387.572 86.72C388.18 87.4773 388.484 88.5013 388.484 89.792C388.484 90.6347 388.345 91.3867 388.068 92.048C387.79 92.7093 387.39 93.232 386.868 93.616C386.345 93.9893 385.742 94.176 385.06 94.176C384.569 94.176 384.11 94.0907 383.684 93.92C383.257 93.7493 382.9 93.5093 382.612 93.2L382.404 94H380.468ZM384.372 87.344C383.817 87.344 383.294 87.488 382.804 87.776V91.984C383.273 92.272 383.796 92.416 384.372 92.416C384.969 92.416 385.406 92.2133 385.684 91.808C385.972 91.4027 386.116 90.7627 386.116 89.888C386.116 89.0027 385.977 88.3573 385.7 87.952C385.422 87.5467 384.98 87.344 384.372 87.344ZM395.672 94L395.448 93.136C394.498 93.872 393.506 94.24 392.472 94.24C391.746 94.24 391.181 94.0267 390.776 93.6C390.37 93.1627 390.168 92.5653 390.168 91.808V85.824H392.504V91.152C392.504 92.016 392.877 92.448 393.624 92.448C394.178 92.448 394.722 92.2773 395.256 91.936V85.824H397.592V94H395.672ZM403.217 91.744C403.217 91.5307 403.153 91.3653 403.025 91.248C402.908 91.1307 402.663 91.0027 402.289 90.864L401.041 90.368C400.391 90.112 399.921 89.7973 399.633 89.424C399.345 89.0507 399.201 88.576 399.201 88C399.201 87.2747 399.489 86.6933 400.065 86.256C400.652 85.808 401.431 85.584 402.401 85.584C403.297 85.584 404.124 85.76 404.881 86.112V87.664C404.071 87.4187 403.313 87.296 402.609 87.296C402.172 87.296 401.852 87.3493 401.649 87.456C401.447 87.5627 401.345 87.7333 401.345 87.968C401.345 88.1493 401.404 88.2987 401.521 88.416C401.649 88.5227 401.911 88.656 402.305 88.816L403.521 89.312C404.183 89.5787 404.652 89.888 404.929 90.24C405.217 90.592 405.361 91.0507 405.361 91.616C405.361 92.4053 405.057 93.0453 404.449 93.536C403.852 94.016 403.063 94.256 402.081 94.256C400.983 94.256 400.012 94.0373 399.169 93.6V92.048C400.225 92.3787 401.191 92.544 402.065 92.544C402.833 92.544 403.217 92.2773 403.217 91.744Z" fill="black"/>
<path d="M381.825 150V141.28L378.705 147.168H377.217L374.081 141.264V150H372.577V138.912H374.401L377.985 145.712L381.553 138.912H383.329V150H381.825ZM390.543 150L390.415 149.168C390.031 149.499 389.604 149.755 389.135 149.936C388.676 150.117 388.217 150.208 387.759 150.208C387.001 150.208 386.393 149.995 385.935 149.568C385.487 149.131 385.263 148.549 385.263 147.824C385.263 147.045 385.54 146.427 386.095 145.968C386.649 145.499 387.396 145.264 388.335 145.264C388.953 145.264 389.625 145.355 390.351 145.536V144.48C390.351 143.904 390.217 143.499 389.951 143.264C389.695 143.029 389.252 142.912 388.623 142.912C387.716 142.912 386.777 143.077 385.807 143.408V142.288C386.191 142.085 386.66 141.931 387.215 141.824C387.769 141.707 388.329 141.648 388.895 141.648C389.908 141.648 390.655 141.861 391.135 142.288C391.615 142.704 391.855 143.344 391.855 144.208V150H390.543ZM388.143 149.008C388.868 149.008 389.604 148.736 390.351 148.192V146.56C389.796 146.421 389.231 146.352 388.655 146.352C387.449 146.352 386.847 146.816 386.847 147.744C386.847 148.149 386.959 148.464 387.183 148.688C387.407 148.901 387.727 149.008 388.143 149.008ZM399.62 150V144.576C399.62 144.011 399.503 143.595 399.268 143.328C399.044 143.061 398.687 142.928 398.196 142.928C397.353 142.928 396.527 143.2 395.716 143.744V150H394.132V141.888H395.46L395.62 142.784C396.633 142.027 397.7 141.648 398.82 141.648C399.599 141.648 400.191 141.856 400.596 142.272C401.001 142.677 401.204 143.269 401.204 144.048V150H399.62ZM408.226 150L408.098 149.168C407.714 149.499 407.288 149.755 406.818 149.936C406.36 150.117 405.901 150.208 405.442 150.208C404.685 150.208 404.077 149.995 403.618 149.568C403.17 149.131 402.946 148.549 402.946 147.824C402.946 147.045 403.224 146.427 403.778 145.968C404.333 145.499 405.08 145.264 406.018 145.264C406.637 145.264 407.309 145.355 408.034 145.536V144.48C408.034 143.904 407.901 143.499 407.634 143.264C407.378 143.029 406.936 142.912 406.306 142.912C405.4 142.912 404.461 143.077 403.49 143.408V142.288C403.874 142.085 404.344 141.931 404.898 141.824C405.453 141.707 406.013 141.648 406.578 141.648C407.592 141.648 408.338 141.861 408.818 142.288C409.298 142.704 409.538 143.344 409.538 144.208V150H408.226ZM405.826 149.008C406.552 149.008 407.288 148.736 408.034 148.192V146.56C407.48 146.421 406.914 146.352 406.338 146.352C405.133 146.352 404.53 146.816 404.53 147.744C404.53 148.149 404.642 148.464 404.866 148.688C405.09 148.901 405.41 149.008 405.826 149.008ZM417.16 148.896C416.797 149.205 416.408 149.445 415.992 149.616C415.576 149.776 415.155 149.856 414.728 149.856C414.077 149.856 413.501 149.696 413 149.376C412.499 149.056 412.104 148.592 411.816 147.984C411.539 147.365 411.4 146.645 411.4 145.824C411.4 144.544 411.704 143.531 412.312 142.784C412.92 142.027 413.736 141.648 414.76 141.648C415.72 141.648 416.557 141.979 417.272 142.64L417.4 141.888H418.728V149.504C418.728 150.773 418.387 151.755 417.704 152.448C417.032 153.141 416.072 153.488 414.824 153.488C413.821 153.488 412.899 153.275 412.056 152.848V151.712C413.037 152.043 413.917 152.208 414.696 152.208C415.549 152.208 416.173 152 416.568 151.584C416.963 151.179 417.16 150.523 417.16 149.616V148.896ZM415.192 148.576C415.853 148.576 416.509 148.331 417.16 147.84V143.632C416.84 143.387 416.515 143.211 416.184 143.104C415.853 142.987 415.491 142.928 415.096 142.928C413.709 142.928 413.016 143.872 413.016 145.76C413.016 146.688 413.197 147.392 413.56 147.872C413.933 148.341 414.477 148.576 415.192 148.576ZM422.137 146.288C422.158 147.205 422.382 147.883 422.809 148.32C423.246 148.757 423.918 148.976 424.825 148.976C425.668 148.976 426.526 148.811 427.401 148.48V149.616C426.633 150.032 425.694 150.24 424.585 150.24C423.273 150.24 422.281 149.877 421.609 149.152C420.937 148.427 420.601 147.355 420.601 145.936C420.601 144.581 420.937 143.531 421.609 142.784C422.281 142.027 423.22 141.648 424.425 141.648C425.438 141.648 426.217 141.936 426.761 142.512C427.305 143.077 427.577 143.883 427.577 144.928C427.577 145.429 427.534 145.883 427.449 146.288H422.137ZM424.345 142.848C423.673 142.848 423.15 143.051 422.777 143.456C422.404 143.851 422.19 144.443 422.137 145.232H426.121C426.132 145.147 426.137 145.008 426.137 144.816C426.137 144.165 425.982 143.675 425.673 143.344C425.374 143.013 424.932 142.848 424.345 142.848ZM435.166 150L434.958 149.168C434.606 149.488 434.206 149.739 433.758 149.92C433.31 150.091 432.857 150.176 432.398 150.176C431.726 150.176 431.134 150.011 430.622 149.68C430.11 149.349 429.71 148.869 429.422 148.24C429.134 147.6 428.99 146.848 428.99 145.984C428.99 145.12 429.129 144.363 429.406 143.712C429.683 143.061 430.078 142.555 430.59 142.192C431.113 141.829 431.731 141.648 432.446 141.648C433.353 141.648 434.169 141.947 434.894 142.544V138.16H436.478V150H435.166ZM432.878 148.896C433.539 148.896 434.211 148.651 434.894 148.16V143.632C434.563 143.387 434.227 143.211 433.886 143.104C433.555 142.987 433.187 142.928 432.782 142.928C431.331 142.928 430.606 143.931 430.606 145.936C430.606 147.909 431.363 148.896 432.878 148.896ZM393.702 170V161.888H395.03L395.206 163.088C395.505 162.768 395.782 162.523 396.038 162.352C396.294 162.171 396.556 162.037 396.822 161.952C397.089 161.867 397.377 161.824 397.686 161.824C397.889 161.824 398.108 161.84 398.342 161.872V163.312C398.001 163.269 397.713 163.248 397.478 163.248C396.625 163.248 395.894 163.504 395.286 164.016V170H393.702ZM405.111 170L404.935 169.136C403.943 169.872 402.925 170.24 401.879 170.24C401.122 170.24 400.541 170.027 400.135 169.6C399.73 169.173 399.527 168.571 399.527 167.792V161.888H401.111V167.28C401.111 167.856 401.223 168.283 401.447 168.56C401.671 168.827 402.029 168.96 402.519 168.96C403.287 168.96 404.061 168.704 404.839 168.192V161.888H406.423V170H405.111ZM411.61 169.888C411.258 170.016 410.874 170.08 410.458 170.08C409.893 170.08 409.461 169.92 409.162 169.6C408.864 169.269 408.714 168.8 408.714 168.192V158.16H410.298V168.096C410.298 168.341 410.346 168.523 410.442 168.64C410.549 168.747 410.72 168.8 410.954 168.8C411.168 168.8 411.386 168.784 411.61 168.752V169.888ZM414.317 166.288C414.338 167.205 414.562 167.883 414.989 168.32C415.426 168.757 416.098 168.976 417.005 168.976C417.847 168.976 418.706 168.811 419.581 168.48V169.616C418.813 170.032 417.874 170.24 416.765 170.24C415.453 170.24 414.461 169.877 413.789 169.152C413.117 168.427 412.781 167.355 412.781 165.936C412.781 164.581 413.117 163.531 413.789 162.784C414.461 162.027 415.399 161.648 416.605 161.648C417.618 161.648 418.397 161.936 418.941 162.512C419.485 163.077 419.757 163.883 419.757 164.928C419.757 165.429 419.714 165.883 419.629 166.288H414.317ZM416.525 162.848C415.853 162.848 415.33 163.051 414.957 163.456C414.583 163.851 414.37 164.443 414.317 165.232H418.301C418.311 165.147 418.317 165.008 418.317 164.816C418.317 164.165 418.162 163.675 417.853 163.344C417.554 163.013 417.111 162.848 416.525 162.848Z" fill="black"/>
<path d="M625.971 94V84.832H622.595V82.912H631.747V84.832H628.371V94H625.971ZM637.022 94L636.83 93.28C636.499 93.5787 636.115 93.8187 635.678 94C635.251 94.1707 634.835 94.256 634.43 94.256C633.64 94.256 633.006 94.032 632.526 93.584C632.056 93.136 631.822 92.5387 631.822 91.792C631.822 91.28 631.95 90.832 632.206 90.448C632.462 90.0533 632.83 89.744 633.31 89.52C633.79 89.296 634.355 89.184 635.006 89.184C635.518 89.184 636.083 89.2533 636.702 89.392V88.592C636.702 88.1013 636.6 87.7653 636.398 87.584C636.195 87.4027 635.822 87.312 635.278 87.312C634.403 87.312 633.438 87.4773 632.382 87.808V86.256C632.776 86.0533 633.272 85.8933 633.87 85.776C634.467 85.648 635.075 85.584 635.694 85.584C636.792 85.584 637.592 85.808 638.094 86.256C638.606 86.6933 638.862 87.3867 638.862 88.336V94H637.022ZM635.086 92.688C635.352 92.688 635.624 92.6293 635.902 92.512C636.19 92.3947 636.456 92.2347 636.702 92.032V90.64C636.232 90.5653 635.811 90.528 635.438 90.528C634.51 90.528 634.046 90.9013 634.046 91.648C634.046 91.9787 634.136 92.2347 634.318 92.416C634.499 92.5973 634.755 92.688 635.086 92.688ZM640.988 94V85.824H642.908L643.196 87.04C643.623 86.5707 644.023 86.24 644.396 86.048C644.78 85.8453 645.185 85.744 645.612 85.744C645.815 85.744 646.028 85.76 646.252 85.792V87.952C645.953 87.888 645.623 87.856 645.26 87.856C644.567 87.856 643.921 87.9787 643.324 88.224V94H640.988ZM652.385 93.008C651.777 93.552 651.062 93.824 650.241 93.824C649.249 93.824 648.454 93.456 647.857 92.72C647.27 91.9733 646.977 90.9813 646.977 89.744C646.977 88.4853 647.275 87.4773 647.873 86.72C648.47 85.9627 649.27 85.584 650.273 85.584C650.721 85.584 651.142 85.664 651.537 85.824C651.931 85.984 652.283 86.2187 652.593 86.528L652.769 85.824H654.689V93.36C654.689 94.6613 654.326 95.6747 653.601 96.4C652.875 97.1253 651.873 97.488 650.593 97.488C649.558 97.488 648.577 97.2587 647.649 96.8V95.232C648.705 95.5627 649.617 95.728 650.385 95.728C651.089 95.728 651.595 95.5627 651.905 95.232C652.225 94.912 652.385 94.384 652.385 93.648V93.008ZM650.961 92.096C651.206 92.096 651.451 92.0587 651.697 91.984C651.953 91.8987 652.182 91.7867 652.385 91.648V87.712C651.947 87.4453 651.435 87.312 650.849 87.312C649.825 87.312 649.313 88.1013 649.313 89.68C649.313 90.5013 649.446 91.1093 649.713 91.504C649.979 91.8987 650.395 92.096 650.961 92.096ZM658.588 90.48C658.63 91.184 658.844 91.696 659.228 92.016C659.612 92.3253 660.214 92.48 661.036 92.48C661.75 92.48 662.582 92.3467 663.532 92.08V93.632C663.158 93.824 662.71 93.9733 662.188 94.08C661.676 94.1867 661.142 94.24 660.588 94.24C659.233 94.24 658.198 93.872 657.484 93.136C656.78 92.4 656.428 91.3227 656.428 89.904C656.428 88.5387 656.78 87.4773 657.484 86.72C658.188 85.9627 659.164 85.584 660.412 85.584C661.468 85.584 662.278 85.8773 662.844 86.464C663.42 87.04 663.708 87.8667 663.708 88.944C663.708 89.1787 663.692 89.4453 663.66 89.744C663.628 90.0427 663.59 90.288 663.548 90.48H658.588ZM660.332 87.2C659.809 87.2 659.393 87.36 659.084 87.68C658.785 87.9893 658.614 88.4427 658.572 89.04H661.708V88.768C661.708 87.7227 661.249 87.2 660.332 87.2ZM670.284 93.792C669.708 94.016 669.063 94.128 668.348 94.128C667.441 94.128 666.769 93.9147 666.332 93.488C665.905 93.0613 665.692 92.4 665.692 91.504V87.552H664.46V86.112L665.756 85.856L666.108 83.616H668.028V85.824H670.236V87.552H668.028V91.392C668.028 91.7333 668.113 91.9733 668.284 92.112C668.455 92.2507 668.743 92.32 669.148 92.32C669.479 92.32 669.857 92.288 670.284 92.224V93.792Z" fill="black"/>
<circle cx="326.5" cy="155.5" r="7.5" fill="white"/>
<path d="M142.667 154C142.667 156.946 145.054 159.333 148 159.333C150.946 159.333 153.333 156.946 153.333 154C153.333 151.054 150.946 148.667 148 148.667C145.054 148.667 142.667 151.054 142.667 154ZM272.707 154.707C273.098 154.317 273.098 153.683 272.707 153.293L266.343 146.929C265.953 146.538 265.319 146.538 264.929 146.929C264.538 147.319 264.538 147.953 264.929 148.343L270.586 154L264.929 159.657C264.538 160.047 264.538 160.681 264.929 161.071C265.319 161.462 265.953 161.462 266.343 161.071L272.707 154.707ZM148 155H272V153H148V155Z" fill="#0972D3"/>
<circle cx="146.5" cy="155.5" r="7.5" fill="white"/>
<path d="M54.5481 158V146.912H61.8441V148.768H56.9481V151.392H60.9321V153.248H56.9481V156.144H61.8441V158H54.5481ZM65.6061 158L62.5021 149.824H64.9821L66.7261 155.904L68.5021 149.824H70.9181L67.8301 158H65.6061ZM73.6127 154.48C73.6554 155.184 73.8687 155.696 74.2527 156.016C74.6367 156.325 75.2394 156.48 76.0607 156.48C76.7754 156.48 77.6074 156.347 78.5567 156.08V157.632C78.1834 157.824 77.7354 157.973 77.2127 158.08C76.7007 158.187 76.1674 158.24 75.6127 158.24C74.2581 158.24 73.2234 157.872 72.5087 157.136C71.8047 156.4 71.4527 155.323 71.4527 153.904C71.4527 152.539 71.8047 151.477 72.5087 150.72C73.2127 149.963 74.1887 149.584 75.4367 149.584C76.4927 149.584 77.3034 149.877 77.8687 150.464C78.4447 151.04 78.7327 151.867 78.7327 152.944C78.7327 153.179 78.7167 153.445 78.6847 153.744C78.6527 154.043 78.6154 154.288 78.5727 154.48H73.6127ZM75.3567 151.2C74.8341 151.2 74.4181 151.36 74.1087 151.68C73.8101 151.989 73.6394 152.443 73.5967 153.04H76.7327V152.768C76.7327 151.723 76.2741 151.2 75.3567 151.2ZM85.693 158V152.64C85.693 152.203 85.597 151.883 85.405 151.68C85.213 151.477 84.9197 151.376 84.525 151.376C83.9383 151.376 83.357 151.557 82.781 151.92V158H80.445V149.824H82.365L82.589 150.704C83.549 149.957 84.573 149.584 85.661 149.584C86.4183 149.584 86.9997 149.792 87.405 150.208C87.821 150.613 88.029 151.195 88.029 151.952V158H85.693ZM95.0259 157.792C94.4499 158.016 93.8045 158.128 93.0899 158.128C92.1832 158.128 91.5112 157.915 91.0739 157.488C90.6472 157.061 90.4339 156.4 90.4339 155.504V151.552H89.2019V150.112L90.4979 149.856L90.8499 147.616H92.7699V149.824H94.9779V151.552H92.7699V155.392C92.7699 155.733 92.8552 155.973 93.0259 156.112C93.1965 156.251 93.4845 156.32 93.8899 156.32C94.2205 156.32 94.5992 156.288 95.0259 156.224V157.792ZM103.958 155.744C103.958 155.531 103.894 155.365 103.766 155.248C103.649 155.131 103.404 155.003 103.03 154.864L101.782 154.368C101.132 154.112 100.662 153.797 100.374 153.424C100.086 153.051 99.9422 152.576 99.9422 152C99.9422 151.275 100.23 150.693 100.806 150.256C101.393 149.808 102.172 149.584 103.142 149.584C104.038 149.584 104.865 149.76 105.622 150.112V151.664C104.812 151.419 104.054 151.296 103.35 151.296C102.913 151.296 102.593 151.349 102.39 151.456C102.188 151.563 102.086 151.733 102.086 151.968C102.086 152.149 102.145 152.299 102.262 152.416C102.39 152.523 102.652 152.656 103.046 152.816L104.262 153.312C104.924 153.579 105.393 153.888 105.67 154.24C105.958 154.592 106.102 155.051 106.102 155.616C106.102 156.405 105.798 157.045 105.19 157.536C104.593 158.016 103.804 158.256 102.822 158.256C101.724 158.256 100.753 158.037 99.9102 157.6V156.048C100.966 156.379 101.932 156.544 102.806 156.544C103.574 156.544 103.958 156.277 103.958 155.744ZM111.163 158.24C109.894 158.24 108.902 157.861 108.187 157.104C107.473 156.336 107.115 155.269 107.115 153.904C107.115 152.549 107.473 151.493 108.187 150.736C108.902 149.968 109.894 149.584 111.163 149.584C112.433 149.584 113.425 149.968 114.139 150.736C114.854 151.493 115.211 152.549 115.211 153.904C115.211 155.269 114.854 156.336 114.139 157.104C113.425 157.861 112.433 158.24 111.163 158.24ZM111.163 156.448C112.283 156.448 112.843 155.6 112.843 153.904C112.843 152.219 112.283 151.376 111.163 151.376C110.043 151.376 109.483 152.219 109.483 153.904C109.483 155.6 110.043 156.448 111.163 156.448ZM122.391 158L122.167 157.136C121.218 157.872 120.226 158.24 119.191 158.24C118.466 158.24 117.901 158.027 117.495 157.6C117.09 157.163 116.887 156.565 116.887 155.808V149.824H119.223V155.152C119.223 156.016 119.597 156.448 120.343 156.448C120.898 156.448 121.442 156.277 121.975 155.936V149.824H124.311V158H122.391ZM126.465 158V149.824H128.385L128.673 151.04C129.1 150.571 129.5 150.24 129.873 150.048C130.257 149.845 130.662 149.744 131.089 149.744C131.292 149.744 131.505 149.76 131.729 149.792V151.952C131.43 151.888 131.1 151.856 130.737 151.856C130.044 151.856 129.398 151.979 128.801 152.224V158H126.465ZM138.773 157.648C138.485 157.819 138.139 157.947 137.733 158.032C137.328 158.128 136.907 158.176 136.469 158.176C135.168 158.176 134.171 157.813 133.477 157.088C132.795 156.363 132.453 155.317 132.453 153.952C132.453 152.597 132.816 151.541 133.541 150.784C134.267 150.027 135.275 149.648 136.565 149.648C137.344 149.648 138.064 149.819 138.725 150.16V151.712C138.096 151.531 137.52 151.44 136.997 151.44C136.251 151.44 135.701 151.632 135.349 152.016C134.997 152.389 134.821 152.987 134.821 153.808V154.032C134.821 154.843 134.992 155.44 135.333 155.824C135.685 156.197 136.224 156.384 136.949 156.384C137.472 156.384 138.08 156.288 138.773 156.096V157.648ZM141.94 154.48C141.982 155.184 142.196 155.696 142.58 156.016C142.964 156.325 143.566 156.48 144.388 156.48C145.102 156.48 145.934 156.347 146.884 156.08V157.632C146.51 157.824 146.062 157.973 145.54 158.08C145.028 158.187 144.494 158.24 143.94 158.24C142.585 158.24 141.55 157.872 140.836 157.136C140.132 156.4 139.78 155.323 139.78 153.904C139.78 152.539 140.132 151.477 140.836 150.72C141.54 149.963 142.516 149.584 143.764 149.584C144.82 149.584 145.63 149.877 146.196 150.464C146.772 151.04 147.06 151.867 147.06 152.944C147.06 153.179 147.044 153.445 147.012 153.744C146.98 154.043 146.942 154.288 146.9 154.48H141.94ZM143.684 151.2C143.161 151.2 142.745 151.36 142.436 151.68C142.137 151.989 141.966 152.443 141.924 153.04H145.06V152.768C145.06 151.723 144.601 151.2 143.684 151.2Z" fill="black"/>
<rect x="32" y="133" width="137" height="42" stroke="#89BDEE" stroke-width="2"/>
<rect x="257.5" y="221.5" width="303" height="25" stroke="#9747FF" stroke-dasharray="2 2"/>
<rect x="148" y="214" width="546" height="11" fill="white"/>
<path d="M191.52 196V184.912H198.416V186.224H193.152V189.632H197.568V190.944H193.152V194.688H198.416V196H191.52ZM202.376 196L199.192 187.888H200.888L203.176 194.56L205.464 187.888H207.096L203.928 196H202.376ZM209.288 192.288C209.31 193.205 209.534 193.883 209.96 194.32C210.398 194.757 211.07 194.976 211.976 194.976C212.819 194.976 213.678 194.811 214.552 194.48V195.616C213.784 196.032 212.846 196.24 211.736 196.24C210.424 196.24 209.432 195.877 208.76 195.152C208.088 194.427 207.752 193.355 207.752 191.936C207.752 190.581 208.088 189.531 208.76 188.784C209.432 188.027 210.371 187.648 211.576 187.648C212.59 187.648 213.368 187.936 213.912 188.512C214.456 189.077 214.728 189.883 214.728 190.928C214.728 191.429 214.686 191.883 214.6 192.288H209.288ZM211.496 188.848C210.824 188.848 210.302 189.051 209.928 189.456C209.555 189.851 209.342 190.443 209.288 191.232H213.272C213.283 191.147 213.288 191.008 213.288 190.816C213.288 190.165 213.134 189.675 212.824 189.344C212.526 189.013 212.083 188.848 211.496 188.848ZM222.045 196V190.576C222.045 190.011 221.928 189.595 221.693 189.328C221.469 189.061 221.112 188.928 220.621 188.928C219.778 188.928 218.952 189.2 218.141 189.744V196H216.557V187.888H217.885L218.045 188.784C219.058 188.027 220.125 187.648 221.245 187.648C222.024 187.648 222.616 187.856 223.021 188.272C223.426 188.677 223.629 189.269 223.629 190.048V196H222.045ZM230.443 195.808C229.921 196.011 229.329 196.112 228.667 196.112C227.153 196.112 226.395 195.355 226.395 193.84V189.136H224.923V188.112L226.443 187.92L226.683 185.616H227.979V187.888H230.379V189.136H227.979V193.76C227.979 194.155 228.065 194.432 228.235 194.592C228.417 194.752 228.721 194.832 229.147 194.832C229.585 194.832 230.017 194.779 230.443 194.672V195.808Z" fill="black"/>
<path fill-rule="evenodd" clip-rule="evenodd" d="M281.001 103.001H307.001V101.001H281.001V103.001ZM305.88 76.009L304.153 74.998L300.544 81.16L302.271 82.17L305.88 76.009ZM312.567 82.594L306.323 86.147L307.312 87.885L313.556 84.332L312.567 82.594ZM309.002 92.995L309 94.995L316 95.001L316.002 93.001L309.002 92.995ZM272 95.001L279 95.007L279.002 93.007L272.002 93.001L272 95.001ZM275.454 82.562L274.462 84.298L280.701 87.863L281.693 86.126L275.454 82.562ZM287.48 81.148L283.882 74.981L282.153 75.989L285.751 82.156L287.48 81.148ZM295.001 73.002L293.001 73L292.994 80L294.994 80.002L295.001 73.002ZM283.095 91.196L288.114 82.501C288.293 82.192 288.623 82.001 288.981 82.001H299.021C299.378 82.001 299.708 82.192 299.887 82.501L304.907 91.196C305.086 91.505 305.086 91.886 304.907 92.196L301.071 98.838L299.339 97.838L302.887 91.696L298.443 84.001H289.558L285.115 91.696L288.662 97.838L286.93 98.838L283.095 92.196C282.916 91.886 282.916 91.505 283.095 91.196Z" fill="#E7157B"/>
<rect width="48" height="48" transform="translate(187 132)" fill="white"/>
<path fill-rule="evenodd" clip-rule="evenodd" d="M217.58 142.58L215.74 141.795L218.538 135.237L220.378 136.022L217.58 142.58ZM223.295 147.605L222.094 146.006L227.831 141.698L229.032 143.298L223.295 147.605ZM225.447 152.802L232.587 151.898L232.839 153.883L225.699 154.786L225.447 152.802ZM224.907 160.354L231.538 163.098L230.773 164.945L224.143 162.202L224.907 160.354ZM220.625 166.644L224.968 172.3L223.382 173.518L219.039 167.863L220.625 166.644ZM213.743 169.995L214.635 177.046L212.65 177.296L211.759 170.245L213.743 169.995ZM204.259 168.716L206.099 169.501L203.301 176.059L201.461 175.274L204.259 168.716ZM198.544 163.69L199.745 165.29L194.008 169.598L192.807 167.998L198.544 163.69ZM196.392 158.494L189.252 159.398L189 157.414L196.14 156.51L196.392 158.494ZM196.932 150.941L190.302 148.198L191.065 146.351L197.696 149.094L196.932 150.941ZM201.214 144.651L196.871 138.997L198.457 137.778L202.8 143.433L201.214 144.651ZM208.096 141.301L207.204 134.25L209.188 134L210.08 141.051L208.096 141.301ZM215.039 162.999H206.379L202.048 155.499L206.379 147.999H215.039L219.369 155.499L215.039 162.999ZM221.39 154.999L216.482 146.499C216.304 146.189 215.974 145.999 215.616 145.999H205.802C205.444 145.999 205.114 146.189 204.935 146.499L200.027 154.999C199.849 155.309 199.849 155.689 200.027 155.999L204.935 164.499C205.114 164.809 205.444 164.999 205.802 164.999H215.616C215.974 164.999 216.304 164.809 216.482 164.499L221.39 155.999C221.568 155.689 221.568 155.309 221.39 154.999Z" fill="#E7157B"/>
<path d="M206.004 306V296.256H202.468V294.912H211.172V296.256H207.636V306H206.004ZM212.68 306V294.912H214.312V304.656H219.544V306H212.68ZM223.071 300.736C222.196 300.405 221.561 300.005 221.167 299.536C220.772 299.067 220.575 298.475 220.575 297.76C220.575 297.163 220.724 296.635 221.023 296.176C221.321 295.707 221.748 295.339 222.303 295.072C222.868 294.805 223.529 294.672 224.287 294.672C225.247 294.672 226.233 294.864 227.247 295.248V296.544C226.169 296.213 225.22 296.048 224.399 296.048C223.705 296.048 223.167 296.192 222.783 296.48C222.409 296.757 222.223 297.157 222.223 297.68C222.223 298.107 222.351 298.448 222.607 298.704C222.863 298.949 223.337 299.2 224.031 299.456L225.487 300C226.351 300.32 226.969 300.709 227.343 301.168C227.727 301.616 227.919 302.197 227.919 302.912C227.919 303.936 227.551 304.752 226.815 305.36C226.089 305.968 225.108 306.272 223.871 306.272C222.644 306.272 221.577 306.053 220.671 305.616V304.336C221.791 304.709 222.847 304.896 223.839 304.896C224.596 304.896 225.188 304.731 225.615 304.4C226.052 304.069 226.271 303.621 226.271 303.056C226.271 302.661 226.143 302.336 225.887 302.08C225.641 301.813 225.22 301.563 224.623 301.328L223.071 300.736Z" fill="black"/>
<path d="M344.388 300V288.912H351.284V290.224H346.02V293.632H350.436V294.944H346.02V298.688H351.284V300H344.388ZM355.245 300L352.061 291.888H353.757L356.045 298.56L358.333 291.888H359.965L356.797 300H355.245ZM362.157 296.288C362.178 297.205 362.402 297.883 362.829 298.32C363.266 298.757 363.938 298.976 364.845 298.976C365.688 298.976 366.546 298.811 367.421 298.48V299.616C366.653 300.032 365.714 300.24 364.605 300.24C363.293 300.24 362.301 299.877 361.629 299.152C360.957 298.427 360.621 297.355 360.621 295.936C360.621 294.581 360.957 293.531 361.629 292.784C362.301 292.027 363.24 291.648 364.445 291.648C365.458 291.648 366.237 291.936 366.781 292.512C367.325 293.077 367.597 293.883 367.597 294.928C367.597 295.429 367.554 295.883 367.469 296.288H362.157ZM364.365 292.848C363.693 292.848 363.17 293.051 362.797 293.456C362.424 293.851 362.21 294.443 362.157 295.232H366.141C366.152 295.147 366.157 295.008 366.157 294.816C366.157 294.165 366.002 293.675 365.693 293.344C365.394 293.013 364.952 292.848 364.365 292.848ZM374.914 300V294.576C374.914 294.011 374.797 293.595 374.562 293.328C374.338 293.061 373.981 292.928 373.49 292.928C372.647 292.928 371.821 293.2 371.01 293.744V300H369.426V291.888H370.754L370.914 292.784C371.927 292.027 372.994 291.648 374.114 291.648C374.893 291.648 375.485 291.856 375.89 292.272C376.295 292.677 376.498 293.269 376.498 294.048V300H374.914ZM383.312 299.808C382.789 300.011 382.197 300.112 381.536 300.112C380.021 300.112 379.264 299.355 379.264 297.84V293.136H377.792V292.112L379.312 291.92L379.552 289.616H380.848V291.888H383.248V293.136H380.848V297.76C380.848 298.155 380.933 298.432 381.104 298.592C381.285 298.752 381.589 298.832 382.016 298.832C382.453 298.832 382.885 298.779 383.312 298.672V299.808ZM388.905 300V288.16H390.489V292.656C391.289 291.984 392.153 291.648 393.081 291.648C394.115 291.648 394.931 292.021 395.529 292.768C396.126 293.515 396.425 294.539 396.425 295.84C396.425 297.152 396.11 298.203 395.481 298.992C394.851 299.781 394.014 300.176 392.969 300.176C391.987 300.176 391.129 299.835 390.393 299.152L390.217 300H388.905ZM392.633 292.928C391.875 292.928 391.161 293.173 390.489 293.664V298.128C391.161 298.64 391.865 298.896 392.601 298.896C394.073 298.896 394.809 297.904 394.809 295.92C394.809 294.907 394.627 294.155 394.265 293.664C393.913 293.173 393.369 292.928 392.633 292.928ZM403.813 300L403.637 299.136C402.645 299.872 401.627 300.24 400.581 300.24C399.824 300.24 399.243 300.027 398.837 299.6C398.432 299.173 398.229 298.571 398.229 297.792V291.888H399.813V297.28C399.813 297.856 399.925 298.283 400.149 298.56C400.373 298.827 400.731 298.96 401.221 298.96C401.989 298.96 402.763 298.704 403.541 298.192V291.888H405.125V300H403.813ZM411.225 297.824C411.225 297.568 411.139 297.36 410.969 297.2C410.809 297.04 410.51 296.88 410.073 296.72L408.713 296.208C407.529 295.771 406.937 295.024 406.937 293.968C406.937 293.275 407.203 292.715 407.737 292.288C408.281 291.861 408.99 291.648 409.865 291.648C410.707 291.648 411.502 291.819 412.249 292.16V293.28C411.417 293.013 410.649 292.88 409.945 292.88C408.921 292.88 408.409 293.227 408.409 293.92C408.409 294.197 408.494 294.416 408.665 294.576C408.835 294.736 409.171 294.912 409.673 295.104L410.921 295.584C411.55 295.829 412.003 296.123 412.281 296.464C412.558 296.795 412.697 297.227 412.697 297.76C412.697 298.517 412.414 299.12 411.849 299.568C411.283 300.016 410.531 300.24 409.593 300.24C408.537 300.24 407.619 300.037 406.841 299.632V298.512C407.843 298.843 408.771 299.008 409.625 299.008C410.147 299.008 410.542 298.907 410.809 298.704C411.086 298.501 411.225 298.208 411.225 297.824ZM425.582 300L424.558 297.056H419.998L419.006 300H417.326L421.422 288.912H423.182L427.278 300H425.582ZM420.414 295.824H424.142L422.27 290.384L420.414 295.824ZM432.643 300V288.16H434.227V295.424L437.667 291.888H439.603L435.763 295.744L439.859 300H437.859L434.227 296.16V300H432.643ZM441.73 296.288C441.752 297.205 441.976 297.883 442.402 298.32C442.84 298.757 443.512 298.976 444.418 298.976C445.261 298.976 446.12 298.811 446.994 298.48V299.616C446.226 300.032 445.288 300.24 444.178 300.24C442.866 300.24 441.874 299.877 441.202 299.152C440.53 298.427 440.194 297.355 440.194 295.936C440.194 294.581 440.53 293.531 441.202 292.784C441.874 292.027 442.813 291.648 444.018 291.648C445.032 291.648 445.81 291.936 446.354 292.512C446.898 293.077 447.17 293.883 447.17 294.928C447.17 295.429 447.128 295.883 447.042 296.288H441.73ZM443.938 292.848C443.266 292.848 442.744 293.051 442.37 293.456C441.997 293.851 441.784 294.443 441.73 295.232H445.714C445.725 295.147 445.73 295.008 445.73 294.816C445.73 294.165 445.576 293.675 445.266 293.344C444.968 293.013 444.525 292.848 443.938 292.848ZM451.191 300.08L447.927 291.888H449.623L451.959 298.528L454.215 291.888H455.847L452.151 301.424C451.874 302.16 451.538 302.688 451.143 303.008C450.759 303.328 450.268 303.488 449.671 303.488C449.223 303.488 448.807 303.413 448.423 303.264V302.128C448.711 302.203 449.015 302.24 449.335 302.24C449.73 302.24 450.039 302.139 450.263 301.936C450.498 301.744 450.706 301.397 450.887 300.896L451.191 300.08Z" fill="black"/>
<path d="M591.956 302V292.256H588.42V290.912H597.124V292.256H593.588V302H591.956ZM602.443 302L602.315 301.168C601.931 301.499 601.504 301.755 601.035 301.936C600.576 302.117 600.118 302.208 599.659 302.208C598.902 302.208 598.294 301.995 597.835 301.568C597.387 301.131 597.163 300.549 597.163 299.824C597.163 299.045 597.44 298.427 597.995 297.968C598.55 297.499 599.296 297.264 600.235 297.264C600.854 297.264 601.526 297.355 602.251 297.536V296.48C602.251 295.904 602.118 295.499 601.851 295.264C601.595 295.029 601.152 294.912 600.523 294.912C599.616 294.912 598.678 295.077 597.707 295.408V294.288C598.091 294.085 598.56 293.931 599.115 293.824C599.67 293.707 600.23 293.648 600.795 293.648C601.808 293.648 602.555 293.861 603.035 294.288C603.515 294.704 603.755 295.344 603.755 296.208V302H602.443ZM600.043 301.008C600.768 301.008 601.504 300.736 602.251 300.192V298.56C601.696 298.421 601.131 298.352 600.555 298.352C599.35 298.352 598.747 298.816 598.747 299.744C598.747 300.149 598.859 300.464 599.083 300.688C599.307 300.901 599.627 301.008 600.043 301.008ZM606.032 302V293.888H607.36L607.536 295.088C607.835 294.768 608.112 294.523 608.368 294.352C608.624 294.171 608.886 294.037 609.152 293.952C609.419 293.867 609.707 293.824 610.016 293.824C610.219 293.824 610.438 293.84 610.672 293.872V295.312C610.331 295.269 610.043 295.248 609.808 295.248C608.955 295.248 608.224 295.504 607.616 296.016V302H606.032ZM617.109 300.896C616.746 301.205 616.357 301.445 615.941 301.616C615.525 301.776 615.104 301.856 614.677 301.856C614.026 301.856 613.45 301.696 612.949 301.376C612.448 301.056 612.053 300.592 611.765 299.984C611.488 299.365 611.349 298.645 611.349 297.824C611.349 296.544 611.653 295.531 612.261 294.784C612.869 294.027 613.685 293.648 614.709 293.648C615.669 293.648 616.506 293.979 617.221 294.64L617.349 293.888H618.677V301.504C618.677 302.773 618.336 303.755 617.653 304.448C616.981 305.141 616.021 305.488 614.773 305.488C613.77 305.488 612.848 305.275 612.005 304.848V303.712C612.986 304.043 613.866 304.208 614.645 304.208C615.498 304.208 616.122 304 616.517 303.584C616.912 303.179 617.109 302.523 617.109 301.616V300.896ZM615.141 300.576C615.802 300.576 616.458 300.331 617.109 299.84V295.632C616.789 295.387 616.464 295.211 616.133 295.104C615.802 294.987 615.44 294.928 615.045 294.928C613.658 294.928 612.965 295.872 612.965 297.76C612.965 298.688 613.146 299.392 613.509 299.872C613.882 300.341 614.426 300.576 615.141 300.576ZM622.086 298.288C622.108 299.205 622.332 299.883 622.758 300.32C623.196 300.757 623.868 300.976 624.774 300.976C625.617 300.976 626.476 300.811 627.35 300.48V301.616C626.582 302.032 625.644 302.24 624.534 302.24C623.222 302.24 622.23 301.877 621.558 301.152C620.886 300.427 620.55 299.355 620.55 297.936C620.55 296.581 620.886 295.531 621.558 294.784C622.23 294.027 623.169 293.648 624.374 293.648C625.388 293.648 626.166 293.936 626.71 294.512C627.254 295.077 627.526 295.883 627.526 296.928C627.526 297.429 627.484 297.883 627.398 298.288H622.086ZM624.294 294.848C623.622 294.848 623.1 295.051 622.726 295.456C622.353 295.851 622.14 296.443 622.086 297.232H626.07C626.081 297.147 626.086 297.008 626.086 296.816C626.086 296.165 625.932 295.675 625.622 295.344C625.324 295.013 624.881 294.848 624.294 294.848ZM633.915 301.808C633.392 302.011 632.8 302.112 632.139 302.112C630.624 302.112 629.867 301.355 629.867 299.84V295.136H628.395V294.112L629.915 293.92L630.155 291.616H631.451V293.888H633.851V295.136H631.451V299.76C631.451 300.155 631.536 300.432 631.707 300.592C631.888 300.752 632.192 300.832 632.619 300.832C633.056 300.832 633.488 300.779 633.915 300.672V301.808ZM639.507 302V290.16H641.091V297.424L644.531 293.888H646.467L642.627 297.744L646.723 302H644.723L641.091 298.16V302H639.507ZM648.594 298.288C648.616 299.205 648.84 299.883 649.266 300.32C649.704 300.757 650.376 300.976 651.282 300.976C652.125 300.976 652.984 300.811 653.858 300.48V301.616C653.09 302.032 652.152 302.24 651.042 302.24C649.73 302.24 648.738 301.877 648.066 301.152C647.394 300.427 647.058 299.355 647.058 297.936C647.058 296.581 647.394 295.531 648.066 294.784C648.738 294.027 649.677 293.648 650.882 293.648C651.896 293.648 652.674 293.936 653.218 294.512C653.762 295.077 654.034 295.883 654.034 296.928C654.034 297.429 653.992 297.883 653.906 298.288H648.594ZM650.802 294.848C650.13 294.848 649.608 295.051 649.234 295.456C648.861 295.851 648.648 296.443 648.594 297.232H652.578C652.589 297.147 652.594 297.008 652.594 296.816C652.594 296.165 652.44 295.675 652.13 295.344C651.832 295.013 651.389 294.848 650.802 294.848ZM658.055 302.08L654.791 293.888H656.487L658.823 300.528L661.079 293.888H662.711L659.015 303.424C658.738 304.16 658.402 304.688 658.007 305.008C657.623 305.328 657.132 305.488 656.535 305.488C656.087 305.488 655.671 305.413 655.287 305.264V304.128C655.575 304.203 655.879 304.24 656.199 304.24C656.594 304.24 656.903 304.139 657.127 303.936C657.362 303.744 657.57 303.397 657.751 302.896L658.055 302.08Z" fill="black"/>
<path d="M533.841 150.94V148.7H543.161V150.94H533.841ZM533.841 155.34V153.1H543.161V155.34H533.841Z" fill="#9BA7B6"/>
<line x1="497" y1="142" x2="497" y2="163" stroke="#9BA7B6" stroke-width="2"/>
<circle cx="515.5" cy="152.5" r="11.5" stroke="black" stroke-width="2"/>
<path d="M457.648 161.74C457.208 161.94 456.661 162.04 456.008 162.04C455.021 162.04 454.247 161.74 453.687 161.14C453.141 160.553 452.867 159.727 452.867 158.66V155.08C452.867 154.573 452.761 154.213 452.547 154C452.334 153.787 451.961 153.68 451.427 153.68H451.007V152.12H451.427C451.961 152.12 452.334 152.013 452.547 151.8C452.761 151.587 452.867 151.227 452.867 150.72V147.14C452.867 146.073 453.141 145.247 453.687 144.66C454.247 144.06 455.021 143.76 456.008 143.76C456.661 143.76 457.208 143.86 457.648 144.06V145.48C457.154 145.387 456.727 145.34 456.368 145.34C455.874 145.34 455.508 145.473 455.268 145.74C455.027 146.007 454.907 146.413 454.907 146.96V150.6C454.907 151.24 454.767 151.74 454.487 152.1C454.221 152.46 453.774 152.727 453.147 152.9C453.774 153.073 454.221 153.34 454.487 153.7C454.767 154.06 454.907 154.56 454.907 155.2V158.84C454.907 159.387 455.027 159.793 455.268 160.06C455.508 160.327 455.874 160.46 456.368 160.46C456.727 160.46 457.154 160.413 457.648 160.32V161.74ZM465.619 159.2C465.232 159.2 464.919 159.08 464.679 158.84C464.439 158.587 464.319 158.267 464.319 157.88C464.319 157.493 464.439 157.18 464.679 156.94C464.919 156.687 465.232 156.56 465.619 156.56C466.005 156.56 466.319 156.687 466.559 156.94C466.799 157.18 466.919 157.493 466.919 157.88C466.919 158.267 466.799 158.587 466.559 158.84C466.319 159.08 466.005 159.2 465.619 159.2ZM470.5 159.2C470.113 159.2 469.8 159.08 469.56 158.84C469.32 158.587 469.2 158.267 469.2 157.88C469.2 157.493 469.32 157.18 469.56 156.94C469.8 156.687 470.113 156.56 470.5 156.56C470.886 156.56 471.2 156.687 471.44 156.94C471.68 157.18 471.8 157.493 471.8 157.88C471.8 158.267 471.68 158.587 471.44 158.84C471.2 159.08 470.886 159.2 470.5 159.2ZM475.38 159.2C474.994 159.2 474.68 159.08 474.44 158.84C474.2 158.587 474.08 158.267 474.08 157.88C474.08 157.493 474.2 157.18 474.44 156.94C474.68 156.687 474.994 156.56 475.38 156.56C475.767 156.56 476.08 156.687 476.32 156.94C476.56 157.18 476.68 157.493 476.68 157.88C476.68 158.267 476.56 158.587 476.32 158.84C476.08 159.08 475.767 159.2 475.38 159.2ZM483.356 160.32C483.849 160.413 484.276 160.46 484.636 160.46C485.129 160.46 485.496 160.327 485.736 160.06C485.976 159.793 486.096 159.387 486.096 158.84V155.2C486.096 154.56 486.229 154.06 486.496 153.7C486.776 153.34 487.229 153.073 487.856 152.9C487.229 152.727 486.776 152.467 486.496 152.12C486.229 151.76 486.096 151.253 486.096 150.6V146.96C486.096 146.413 485.976 146.007 485.736 145.74C485.496 145.473 485.129 145.34 484.636 145.34C484.276 145.34 483.849 145.387 483.356 145.48V144.06C483.796 143.86 484.342 143.76 484.996 143.76C485.982 143.76 486.749 144.06 487.296 144.66C487.856 145.247 488.136 146.073 488.136 147.14V150.72C488.136 151.227 488.242 151.587 488.456 151.8C488.669 152.013 489.042 152.12 489.576 152.12H489.996V153.68H489.576C489.042 153.68 488.669 153.787 488.456 154C488.242 154.213 488.136 154.573 488.136 155.08V158.66C488.136 159.727 487.856 160.553 487.296 161.14C486.749 161.74 485.982 162.04 484.996 162.04C484.342 162.04 483.796 161.94 483.356 161.74V160.32Z" fill="black"/>
<rect x="443.75" y="133.75" width="116.5" height="37.5" stroke="#7D8998" stroke-width="1.5"/>
<rect width="25" height="24" transform="translate(549 140)" fill="white"/>
<path fill-rule="evenodd" clip-rule="evenodd" d="M549 152C549 158.627 554.373 164 561 164C567.627 164 573 158.627 573 152C573 145.373 567.627 140 561 140C554.373 140 549 145.373 549 152ZM570 152C570 156.971 565.971 161 561 161C556.029 161 552 156.971 552 152C552 147.029 556.029 143 561 143C565.971 143 570 147.029 570 152Z" fill="#037F0C"/>
<path fill-rule="evenodd" clip-rule="evenodd" d="M556.812 149.879L554.603 152L559.937 157.121L567.647 149.72L565.437 147.599L559.937 152.879L556.812 149.879Z" fill="#037F0C"/>
<line x1="516" y1="144" x2="516" y2="155" stroke="black" stroke-width="2"/>
<line x1="527" y1="154" x2="516" y2="154" stroke="black" stroke-width="2"/>
<path d="M320.667 154C320.667 156.946 323.054 159.333 326 159.333C328.946 159.333 331.333 156.946 331.333 154C331.333 151.054 328.946 148.667 326 148.667C323.054 148.667 320.667 151.054 320.667 154ZM363.707 154.707C364.098 154.317 364.098 153.683 363.707 153.293L357.343 146.929C356.953 146.538 356.319 146.538 355.929 146.929C355.538 147.319 355.538 147.953 355.929 148.343L361.586 154L355.929 159.657C355.538 160.047 355.538 160.681 355.929 161.071C356.319 161.462 356.953 161.462 357.343 161.071L363.707 154.707ZM326 155H363V153H326V155Z" fill="#0972D3"/>
<circle cx="326.5" cy="155.5" r="7.5" fill="white"/>
<circle cx="146.5" cy="155.5" r="7.5" fill="white"/>
<path d="M54.5481 158V146.912H61.8441V148.768H56.9481V151.392H60.9321V153.248H56.9481V156.144H61.8441V158H54.5481ZM65.6061 158L62.5021 149.824H64.9821L66.7261 155.904L68.5021 149.824H70.9181L67.8301 158H65.6061ZM73.6127 154.48C73.6554 155.184 73.8687 155.696 74.2527 156.016C74.6367 156.325 75.2394 156.48 76.0607 156.48C76.7754 156.48 77.6074 156.347 78.5567 156.08V157.632C78.1834 157.824 77.7354 157.973 77.2127 158.08C76.7007 158.187 76.1674 158.24 75.6127 158.24C74.2581 158.24 73.2234 157.872 72.5087 157.136C71.8047 156.4 71.4527 155.323 71.4527 153.904C71.4527 152.539 71.8047 151.477 72.5087 150.72C73.2127 149.963 74.1887 149.584 75.4367 149.584C76.4927 149.584 77.3034 149.877 77.8687 150.464C78.4447 151.04 78.7327 151.867 78.7327 152.944C78.7327 153.179 78.7167 153.445 78.6847 153.744C78.6527 154.043 78.6154 154.288 78.5727 154.48H73.6127ZM75.3567 151.2C74.8341 151.2 74.4181 151.36 74.1087 151.68C73.8101 151.989 73.6394 152.443 73.5967 153.04H76.7327V152.768C76.7327 151.723 76.2741 151.2 75.3567 151.2ZM85.693 158V152.64C85.693 152.203 85.597 151.883 85.405 151.68C85.213 151.477 84.9197 151.376 84.525 151.376C83.9383 151.376 83.357 151.557 82.781 151.92V158H80.445V149.824H82.365L82.589 150.704C83.549 149.957 84.573 149.584 85.661 149.584C86.4183 149.584 86.9997 149.792 87.405 150.208C87.821 150.613 88.029 151.195 88.029 151.952V158H85.693ZM95.0259 157.792C94.4499 158.016 93.8045 158.128 93.0899 158.128C92.1832 158.128 91.5112 157.915 91.0739 157.488C90.6472 157.061 90.4339 156.4 90.4339 155.504V151.552H89.2019V150.112L90.4979 149.856L90.8499 147.616H92.7699V149.824H94.9779V151.552H92.7699V155.392C92.7699 155.733 92.8552 155.973 93.0259 156.112C93.1965 156.251 93.4845 156.32 93.8899 156.32C94.2205 156.32 94.5992 156.288 95.0259 156.224V157.792ZM103.958 155.744C103.958 155.531 103.894 155.365 103.766 155.248C103.649 155.131 103.404 155.003 103.03 154.864L101.782 154.368C101.132 154.112 100.662 153.797 100.374 153.424C100.086 153.051 99.9422 152.576 99.9422 152C99.9422 151.275 100.23 150.693 100.806 150.256C101.393 149.808 102.172 149.584 103.142 149.584C104.038 149.584 104.865 149.76 105.622 150.112V151.664C104.812 151.419 104.054 151.296 103.35 151.296C102.913 151.296 102.593 151.349 102.39 151.456C102.188 151.563 102.086 151.733 102.086 151.968C102.086 152.149 102.145 152.299 102.262 152.416C102.39 152.523 102.652 152.656 103.046 152.816L104.262 153.312C104.924 153.579 105.393 153.888 105.67 154.24C105.958 154.592 106.102 155.051 106.102 155.616C106.102 156.405 105.798 157.045 105.19 157.536C104.593 158.016 103.804 158.256 102.822 158.256C101.724 158.256 100.753 158.037 99.9102 157.6V156.048C100.966 156.379 101.932 156.544 102.806 156.544C103.574 156.544 103.958 156.277 103.958 155.744ZM111.163 158.24C109.894 158.24 108.902 157.861 108.187 157.104C107.473 156.336 107.115 155.269 107.115 153.904C107.115 152.549 107.473 151.493 108.187 150.736C108.902 149.968 109.894 149.584 111.163 149.584C112.433 149.584 113.425 149.968 114.139 150.736C114.854 151.493 115.211 152.549 115.211 153.904C115.211 155.269 114.854 156.336 114.139 157.104C113.425 157.861 112.433 158.24 111.163 158.24ZM111.163 156.448C112.283 156.448 112.843 155.6 112.843 153.904C112.843 152.219 112.283 151.376 111.163 151.376C110.043 151.376 109.483 152.219 109.483 153.904C109.483 155.6 110.043 156.448 111.163 156.448ZM122.391 158L122.167 157.136C121.218 157.872 120.226 158.24 119.191 158.24C118.466 158.24 117.901 158.027 117.495 157.6C117.09 157.163 116.887 156.565 116.887 155.808V149.824H119.223V155.152C119.223 156.016 119.597 156.448 120.343 156.448C120.898 156.448 121.442 156.277 121.975 155.936V149.824H124.311V158H122.391ZM126.465 158V149.824H128.385L128.673 151.04C129.1 150.571 129.5 150.24 129.873 150.048C130.257 149.845 130.662 149.744 131.089 149.744C131.292 149.744 131.505 149.76 131.729 149.792V151.952C131.43 151.888 131.1 151.856 130.737 151.856C130.044 151.856 129.398 151.979 128.801 152.224V158H126.465ZM138.773 157.648C138.485 157.819 138.139 157.947 137.733 158.032C137.328 158.128 136.907 158.176 136.469 158.176C135.168 158.176 134.171 157.813 133.477 157.088C132.795 156.363 132.453 155.317 132.453 153.952C132.453 152.597 132.816 151.541 133.541 150.784C134.267 150.027 135.275 149.648 136.565 149.648C137.344 149.648 138.064 149.819 138.725 150.16V151.712C138.096 151.531 137.52 151.44 136.997 151.44C136.251 151.44 135.701 151.632 135.349 152.016C134.997 152.389 134.821 152.987 134.821 153.808V154.032C134.821 154.843 134.992 155.44 135.333 155.824C135.685 156.197 136.224 156.384 136.949 156.384C137.472 156.384 138.08 156.288 138.773 156.096V157.648ZM141.94 154.48C141.982 155.184 142.196 155.696 142.58 156.016C142.964 156.325 143.566 156.48 144.388 156.48C145.102 156.48 145.934 156.347 146.884 156.08V157.632C146.51 157.824 146.062 157.973 145.54 158.08C145.028 158.187 144.494 158.24 143.94 158.24C142.585 158.24 141.55 157.872 140.836 157.136C140.132 156.4 139.78 155.323 139.78 153.904C139.78 152.539 140.132 151.477 140.836 150.72C141.54 149.963 142.516 149.584 143.764 149.584C144.82 149.584 145.63 149.877 146.196 150.464C146.772 151.04 147.06 151.867 147.06 152.944C147.06 153.179 147.044 153.445 147.012 153.744C146.98 154.043 146.942 154.288 146.9 154.48H141.94ZM143.684 151.2C143.161 151.2 142.745 151.36 142.436 151.68C142.137 151.989 141.966 152.443 141.924 153.04H145.06V152.768C145.06 151.723 144.601 151.2 143.684 151.2Z" fill="black"/>
<rect width="48" height="48" transform="translate(377 228)" fill="white"/>
<path fill-rule="evenodd" clip-rule="evenodd" d="M401.002 253.438C401.657 253.438 402.189 253.97 402.189 254.625C402.189 255.281 401.657 255.813 401.002 255.813C400.347 255.813 399.814 255.281 399.814 254.625C399.814 253.97 400.347 253.438 401.002 253.438ZM400.002 257.636V260.691H402.002V257.636C403.269 257.214 404.19 256.032 404.19 254.625C404.19 252.868 402.76 251.438 401.002 251.438C399.244 251.438 397.814 252.868 397.814 254.625C397.814 256.032 398.735 257.214 400.002 257.636ZM401.002 272.001C389.973 272.001 381 263.029 381 252.001C381 240.972 389.973 232 401.002 232C412.03 232 421.003 240.972 421.003 252.001C421.003 263.029 412.03 272.001 401.002 272.001ZM401.002 230C388.87 230 379 239.869 379 252.001C379 264.132 388.87 274.001 401.002 274.001C413.134 274.001 423.003 264.132 423.003 252.001C423.003 239.869 413.134 230 401.002 230ZM409.62 262.376L392.376 262.369L392.381 249.5L409.627 249.507L409.62 262.376ZM396.755 244.096C396.759 242.917 397.208 241.813 398.02 240.984C398.821 240.167 399.882 239.716 401.008 239.716H401.023C402.148 239.719 403.205 240.179 403.999 241.009C404.8 241.847 405.239 242.96 405.235 244.148V247.505L396.739 247.502L396.755 244.096ZM410.627 247.507L407.235 247.506V244.151C407.241 242.448 406.605 240.84 405.444 239.627C404.272 238.4 402.703 237.721 401.028 237.716H401.008C399.34 237.716 397.773 238.379 396.592 239.584C395.413 240.787 394.761 242.387 394.755 244.088L394.739 247.501H391.381C391.116 247.501 390.861 247.606 390.674 247.793C390.486 247.981 390.381 248.235 390.381 248.501L390.376 263.369C390.376 263.92 390.823 264.369 391.376 264.369L410.62 264.376C411.172 264.376 411.62 263.929 411.62 263.376L411.627 248.507C411.627 248.243 411.522 247.988 411.334 247.8C411.147 247.613 410.893 247.507 410.627 247.507Z" fill="#8C4FFF"/>
<rect width="48" height="48" transform="translate(192 228)" fill="white"/>
<path fill-rule="evenodd" clip-rule="evenodd" d="M216.002 253.438C216.657 253.438 217.189 253.97 217.189 254.625C217.189 255.281 216.657 255.813 216.002 255.813C215.347 255.813 214.814 255.281 214.814 254.625C214.814 253.97 215.347 253.438 216.002 253.438ZM215.002 257.636V260.691H217.002V257.636C218.269 257.214 219.19 256.032 219.19 254.625C219.19 252.868 217.76 251.438 216.002 251.438C214.244 251.438 212.814 252.868 212.814 254.625C212.814 256.032 213.735 257.214 215.002 257.636ZM216.002 272.001C204.973 272.001 196 263.029 196 252.001C196 240.972 204.973 232 216.002 232C227.03 232 236.003 240.972 236.003 252.001C236.003 263.029 227.03 272.001 216.002 272.001ZM216.002 230C203.87 230 194 239.869 194 252.001C194 264.132 203.87 274.001 216.002 274.001C228.134 274.001 238.003 264.132 238.003 252.001C238.003 239.869 228.134 230 216.002 230ZM224.62 262.376L207.376 262.369L207.381 249.5L224.627 249.507L224.62 262.376ZM211.755 244.096C211.759 242.917 212.208 241.813 213.02 240.984C213.821 240.167 214.882 239.716 216.008 239.716H216.023C217.148 239.719 218.205 240.179 218.999 241.009C219.8 241.847 220.239 242.96 220.235 244.148V247.505L211.739 247.502L211.755 244.096ZM225.627 247.507L222.235 247.506V244.151C222.241 242.448 221.605 240.84 220.444 239.627C219.272 238.4 217.703 237.721 216.028 237.716H216.008C214.34 237.716 212.773 238.379 211.592 239.584C210.413 240.787 209.761 242.387 209.755 244.088L209.739 247.501H206.381C206.116 247.501 205.861 247.606 205.674 247.793C205.486 247.981 205.381 248.235 205.381 248.501L205.376 263.369C205.376 263.92 205.823 264.369 206.376 264.369L225.62 264.376C226.172 264.376 226.62 263.929 226.62 263.376L226.627 248.507C226.627 248.243 226.522 247.988 226.334 247.8C226.147 247.613 225.893 247.507 225.627 247.507Z" fill="#8C4FFF"/>
<rect width="48" height="48" transform="translate(601 228)" fill="white"/>
<path fill-rule="evenodd" clip-rule="evenodd" d="M625.002 253.438C625.657 253.438 626.189 253.97 626.189 254.625C626.189 255.281 625.657 255.813 625.002 255.813C624.347 255.813 623.814 255.281 623.814 254.625C623.814 253.97 624.347 253.438 625.002 253.438ZM624.002 257.636V260.691H626.002V257.636C627.269 257.214 628.19 256.032 628.19 254.625C628.19 252.868 626.76 251.438 625.002 251.438C623.244 251.438 621.814 252.868 621.814 254.625C621.814 256.032 622.735 257.214 624.002 257.636ZM625.002 272.001C613.973 272.001 605 263.029 605 252.001C605 240.972 613.973 232 625.002 232C636.03 232 645.003 240.972 645.003 252.001C645.003 263.029 636.03 272.001 625.002 272.001ZM625.002 230C612.87 230 603 239.869 603 252.001C603 264.132 612.87 274.001 625.002 274.001C637.134 274.001 647.003 264.132 647.003 252.001C647.003 239.869 637.134 230 625.002 230ZM633.62 262.376L616.376 262.369L616.381 249.5L633.627 249.507L633.62 262.376ZM620.755 244.096C620.759 242.917 621.208 241.813 622.02 240.984C622.821 240.167 623.882 239.716 625.008 239.716H625.023C626.148 239.719 627.205 240.179 627.999 241.009C628.8 241.847 629.239 242.96 629.235 244.148V247.505L620.739 247.502L620.755 244.096ZM634.627 247.507L631.235 247.506V244.151C631.241 242.448 630.605 240.84 629.444 239.627C628.272 238.4 626.703 237.721 625.028 237.716H625.008C623.34 237.716 621.773 238.379 620.592 239.584C619.413 240.787 618.761 242.387 618.755 244.088L618.739 247.501H615.381C615.116 247.501 614.861 247.606 614.674 247.793C614.486 247.981 614.381 248.235 614.381 248.501L614.376 263.369C614.376 263.92 614.823 264.369 615.376 264.369L634.62 264.376C635.172 264.376 635.62 263.929 635.62 263.376L635.627 248.507C635.627 248.243 635.522 247.988 635.334 247.8C635.147 247.613 634.893 247.507 634.627 247.507Z" fill="#8C4FFF"/>
<path fill-rule="evenodd" clip-rule="evenodd" d="M309.58 140.58L307.74 139.795L310.538 133.237L312.378 134.022L309.58 140.58ZM315.295 145.605L314.094 144.006L319.831 139.698L321.032 141.298L315.295 145.605ZM317.447 150.802L324.587 149.898L324.839 151.883L317.699 152.786L317.447 150.802ZM316.907 158.354L323.538 161.098L322.773 162.945L316.143 160.202L316.907 158.354ZM312.625 164.644L316.968 170.3L315.382 171.518L311.039 165.863L312.625 164.644ZM305.743 167.995L306.635 175.046L304.65 175.296L303.759 168.245L305.743 167.995ZM296.259 166.716L298.099 167.501L295.301 174.059L293.461 173.274L296.259 166.716ZM290.544 161.69L291.745 163.29L286.008 167.598L284.807 165.998L290.544 161.69ZM288.392 156.494L281.252 157.398L281 155.414L288.14 154.51L288.392 156.494ZM288.932 148.941L282.302 146.198L283.065 144.351L289.696 147.094L288.932 148.941ZM293.214 142.651L288.871 136.997L290.457 135.778L294.8 141.433L293.214 142.651ZM300.096 139.301L299.204 132.25L301.188 132L302.08 139.051L300.096 139.301ZM307.039 160.999H298.379L294.048 153.499L298.379 145.999H307.039L311.369 153.499L307.039 160.999ZM313.39 152.999L308.482 144.499C308.304 144.189 307.974 143.999 307.616 143.999H297.802C297.444 143.999 297.114 144.189 296.935 144.499L292.027 152.999C291.849 153.309 291.849 153.689 292.027 153.999L296.935 162.499C297.114 162.809 297.444 162.999 297.802 162.999H307.616C307.974 162.999 308.304 162.809 308.482 162.499L313.39 153.999C313.568 153.689 313.568 153.309 313.39 152.999Z" fill="#E7157B"/>
<path d="M300.414 52V42.298H306.798V43.922H302.514V46.218H306V47.842H302.514V50.376H306.798V52H300.414ZM310.079 52L307.363 44.846H309.533L311.059 50.166L312.613 44.846H314.727L312.025 52H310.079ZM317.075 48.92C317.112 49.536 317.299 49.984 317.635 50.264C317.971 50.5347 318.498 50.67 319.217 50.67C319.842 50.67 320.57 50.5533 321.401 50.32V51.678C321.074 51.846 320.682 51.9767 320.225 52.07C319.777 52.1633 319.31 52.21 318.825 52.21C317.64 52.21 316.734 51.888 316.109 51.244C315.493 50.6 315.185 49.6573 315.185 48.416C315.185 47.2213 315.493 46.2927 316.109 45.63C316.725 44.9673 317.579 44.636 318.671 44.636C319.595 44.636 320.304 44.8927 320.799 45.406C321.303 45.91 321.555 46.6333 321.555 47.576C321.555 47.7813 321.541 48.0147 321.513 48.276C321.485 48.5373 321.452 48.752 321.415 48.92H317.075ZM318.601 46.05C318.144 46.05 317.78 46.19 317.509 46.47C317.248 46.7407 317.098 47.1373 317.061 47.66H319.805V47.422C319.805 46.5073 319.404 46.05 318.601 46.05ZM327.635 52V47.31C327.635 46.9273 327.551 46.6473 327.383 46.47C327.215 46.2927 326.959 46.204 326.613 46.204C326.1 46.204 325.591 46.3627 325.087 46.68V52H323.043V44.846H324.723L324.919 45.616C325.759 44.9627 326.655 44.636 327.607 44.636C328.27 44.636 328.779 44.818 329.133 45.182C329.497 45.5367 329.679 46.0453 329.679 46.708V52H327.635ZM335.792 51.818C335.288 52.014 334.723 52.112 334.098 52.112C333.304 52.112 332.716 51.9253 332.334 51.552C331.96 51.1787 331.774 50.6 331.774 49.816V46.358H330.696V45.098L331.83 44.874L332.138 42.914H333.818V44.846H335.75V46.358H333.818V49.718C333.818 50.0167 333.892 50.2267 334.042 50.348C334.191 50.4693 334.443 50.53 334.798 50.53C335.087 50.53 335.418 50.502 335.792 50.446V51.818ZM337.105 52V42.298H340.591C341.525 42.298 342.276 42.536 342.845 43.012C343.424 43.488 343.713 44.1087 343.713 44.874C343.713 45.35 343.601 45.7607 343.377 46.106C343.163 46.442 342.841 46.7033 342.411 46.89C343.009 47.0673 343.461 47.3613 343.769 47.772C344.087 48.1733 344.245 48.668 344.245 49.256C344.245 50.096 343.933 50.7633 343.307 51.258C342.682 51.7527 341.842 52 340.787 52H337.105ZM339.093 47.772V50.502H340.745C341.697 50.502 342.173 50.054 342.173 49.158C342.173 48.234 341.665 47.772 340.647 47.772H339.093ZM339.093 43.796V46.344H340.311C341.217 46.344 341.669 45.924 341.669 45.084C341.669 44.2253 341.254 43.796 340.423 43.796H339.093ZM345.731 52V44.846H347.411L347.663 45.91C348.036 45.4993 348.386 45.21 348.713 45.042C349.049 44.8647 349.404 44.776 349.777 44.776C349.954 44.776 350.141 44.79 350.337 44.818V46.708C350.076 46.652 349.786 46.624 349.469 46.624C348.862 46.624 348.298 46.7313 347.775 46.946V52H345.731ZM351.381 52V44.846H353.425V52H351.381ZM352.403 43.74C352.048 43.74 351.764 43.642 351.549 43.446C351.334 43.25 351.227 42.984 351.227 42.648C351.227 42.312 351.334 42.046 351.549 41.85C351.764 41.654 352.048 41.556 352.403 41.556C352.758 41.556 353.042 41.654 353.257 41.85C353.472 42.046 353.579 42.312 353.579 42.648C353.579 42.984 353.472 43.25 353.257 43.446C353.042 43.642 352.758 43.74 352.403 43.74ZM360.19 52L360.022 51.37C359.443 51.8927 358.757 52.154 357.964 52.154C357.376 52.154 356.858 52.0093 356.41 51.72C355.962 51.4213 355.612 50.992 355.36 50.432C355.117 49.872 354.996 49.214 354.996 48.458C354.996 47.3007 355.271 46.3767 355.822 45.686C356.373 44.986 357.101 44.636 358.006 44.636C358.743 44.636 359.383 44.846 359.924 45.266V41.64H361.968V52H360.19ZM358.636 50.614C359.084 50.614 359.513 50.4833 359.924 50.222V46.526C359.523 46.2927 359.061 46.176 358.538 46.176C358.043 46.176 357.675 46.3627 357.432 46.736C357.189 47.1 357.068 47.6553 357.068 48.402C357.068 49.1487 357.194 49.704 357.446 50.068C357.707 50.432 358.104 50.614 358.636 50.614ZM368.22 51.132C367.688 51.608 367.063 51.846 366.344 51.846C365.476 51.846 364.781 51.524 364.258 50.88C363.745 50.2267 363.488 49.3587 363.488 48.276C363.488 47.1747 363.75 46.2927 364.272 45.63C364.795 44.9673 365.495 44.636 366.372 44.636C366.764 44.636 367.133 44.706 367.478 44.846C367.824 44.986 368.132 45.1913 368.402 45.462L368.556 44.846H370.236V51.44C370.236 52.5787 369.919 53.4653 369.284 54.1C368.65 54.7347 367.772 55.052 366.652 55.052C365.747 55.052 364.888 54.8513 364.076 54.45V53.078C365 53.3673 365.798 53.512 366.47 53.512C367.086 53.512 367.53 53.3673 367.8 53.078C368.08 52.798 368.22 52.336 368.22 51.692V51.132ZM366.974 50.334C367.189 50.334 367.404 50.3013 367.618 50.236C367.842 50.1613 368.043 50.0633 368.22 49.942V46.498C367.838 46.2647 367.39 46.148 366.876 46.148C365.98 46.148 365.532 46.8387 365.532 48.22C365.532 48.9387 365.649 49.4707 365.882 49.816C366.116 50.1613 366.48 50.334 366.974 50.334ZM373.638 48.92C373.676 49.536 373.862 49.984 374.198 50.264C374.534 50.5347 375.062 50.67 375.78 50.67C376.406 50.67 377.134 50.5533 377.964 50.32V51.678C377.638 51.846 377.246 51.9767 376.788 52.07C376.34 52.1633 375.874 52.21 375.388 52.21C374.203 52.21 373.298 51.888 372.672 51.244C372.056 50.6 371.748 49.6573 371.748 48.416C371.748 47.2213 372.056 46.2927 372.672 45.63C373.288 44.9673 374.142 44.636 375.234 44.636C376.158 44.636 376.868 44.8927 377.362 45.406C377.866 45.91 378.118 46.6333 378.118 47.576C378.118 47.7813 378.104 48.0147 378.076 48.276C378.048 48.5373 378.016 48.752 377.978 48.92H373.638ZM375.164 46.05C374.707 46.05 374.343 46.19 374.072 46.47C373.811 46.7407 373.662 47.1373 373.624 47.66H376.368V47.422C376.368 46.5073 375.967 46.05 375.164 46.05Z" fill="black"/>
<rect x="259" y="29" width="32" height="32" fill="#E7157B"/>
<path fill-rule="evenodd" clip-rule="evenodd" d="M280.463 55.4C279.606 55.4 278.908 54.6988 278.908 53.8364C278.908 52.974 279.606 52.2728 280.463 52.2728C281.32 52.2728 282.018 52.974 282.018 53.8364C282.018 54.6988 281.32 55.4 280.463 55.4ZM277.053 48.6H272.919L270.852 45L272.919 41.4H277.053L279.12 45L277.053 48.6ZM270.048 37.7272C269.191 37.7272 268.494 37.026 268.494 36.1636C268.494 35.3012 269.191 34.6 270.048 34.6C270.906 34.6 271.604 35.3012 271.604 36.1636C271.604 37.026 270.906 37.7272 270.048 37.7272ZM280.463 51.4729C280.168 51.4729 279.886 51.5301 279.625 51.6305L277.936 48.7641L277.847 48.8173L279.924 45.2C279.995 45.076 279.995 44.924 279.924 44.8L277.627 40.8C277.556 40.676 277.425 40.6 277.283 40.6H273.103L273.12 40.5904L271.571 37.9616C272.077 37.528 272.399 36.8832 272.399 36.1636C272.399 34.8604 271.345 33.8 270.048 33.8C268.753 33.8 267.698 34.8604 267.698 36.1636C267.698 37.4668 268.753 38.5272 270.048 38.5272C270.344 38.5272 270.626 38.47 270.886 38.3696L272.332 40.8228L270.048 44.8C269.977 44.924 269.977 45.076 270.048 45.2L272.345 49.2001C272.416 49.324 272.548 49.4001 272.69 49.4001H277.283C277.316 49.4001 277.348 49.3948 277.379 49.3872L278.941 52.0385C278.435 52.4721 278.112 53.1168 278.112 53.8365C278.112 55.1397 279.166 56.2001 280.463 56.2001C281.759 56.2001 282.813 55.1397 282.813 53.8365C282.813 52.5333 281.759 51.4729 280.463 51.4729ZM282.834 41.8416C281.977 41.8416 281.279 41.1404 281.279 40.278C281.279 39.4156 281.977 38.7144 282.834 38.7144C283.691 38.7144 284.389 39.4156 284.389 40.278C284.389 41.1404 283.691 41.8416 282.834 41.8416ZM285.747 44.8L284.237 42.17C284.811 41.7384 285.184 41.052 285.184 40.278C285.184 38.9748 284.13 37.9144 282.834 37.9144C282.504 37.9144 282.19 37.9836 281.905 38.108L280.674 35.9636C280.603 35.84 280.471 35.7636 280.329 35.7636H275.398V36.5636H280.1L281.238 38.5476C280.775 38.9796 280.484 39.5944 280.484 40.278C280.484 41.5812 281.538 42.6416 282.834 42.6416C283.075 42.6416 283.309 42.6044 283.528 42.536L284.943 45L282.957 48.4592L283.646 48.8592L285.747 45.2C285.818 45.076 285.818 44.924 285.747 44.8ZM267.492 51.0989C266.634 51.0989 265.936 50.3972 265.936 49.5352C265.936 48.6728 266.634 47.9716 267.492 47.9716C268.349 47.9716 269.046 48.6728 269.046 49.5352C269.046 50.3972 268.349 51.0989 267.492 51.0989ZM268.791 51.5033C269.424 51.0793 269.842 50.3556 269.842 49.5352C269.842 48.232 268.788 47.1716 267.492 47.1716C267.116 47.1716 266.763 47.2628 266.447 47.4208L265.057 45L267.361 40.9884L266.671 40.5884L264.253 44.8C264.182 44.924 264.182 45.076 264.253 45.2L265.802 47.896C265.393 48.3216 265.141 48.8988 265.141 49.5352C265.141 50.8384 266.195 51.8988 267.492 51.8988C267.687 51.8988 267.876 51.872 268.058 51.8264L269.326 54.0364C269.398 54.16 269.529 54.2365 269.671 54.2365H274.602V53.4364H269.9L268.791 51.5033Z" fill="white"/>
<path d="M658.462 153C658.462 159.679 653.348 165 647.151 165C640.955 165 635.841 159.679 635.841 153C635.841 146.321 640.955 141 647.151 141C653.348 141 658.462 146.321 658.462 153Z" stroke="#0048A5" stroke-width="2"/>
<path d="M654.674 153C654.674 157.47 651.256 161 647.152 161C643.047 161 639.629 157.47 639.629 153C639.629 148.53 643.047 145 647.152 145C651.256 145 654.674 148.53 654.674 153Z" stroke="#0048A5" stroke-width="2"/>
<line x1="647.205" y1="138" x2="647.205" y2="149" stroke="#0048A5" stroke-width="2"/>
<line x1="647.205" y1="157" x2="647.205" y2="168" stroke="#0048A5" stroke-width="2"/>
<line x1="662.303" y1="153" x2="651.886" y2="153" stroke="#0048A5" stroke-width="2"/>
<line x1="642.417" y1="153" x2="632" y2="153" stroke="#0048A5" stroke-width="2"/>
</svg>
